<?xml version="1.0" encoding="iso-8859-1"?>
<!-- Generator: Adobe Illustrator 19.0.0, SVG Export Plug-In . SVG Version: 6.00 Build 0)  -->
<svg xmlns="http://www.w3.org/2000/svg" xmlns:xlink="http://www.w3.org/1999/xlink" version="1.1" id="Layer_1" x="0px" y="0px" viewBox="0 0 512 512" style="enable-background:new 0 0 512 512;" xml:space="preserve" width="512px" height="512px">
<g>
	<g>
		<rect x="201" y="269.63" width="110" height="165.37" fill="#31466a"/>
	</g>
</g>
<g>
	<g>
		<rect x="362" y="269.63" width="110" height="165.37" fill="#31466a"/>
	</g>
</g>
<g>
	<g>
		<rect y="203.63" width="512" height="36" fill="#31466a"/>
	</g>
</g>
<g>
	<g>
		<rect x="40" y="269.63" width="110" height="165.37" fill="#31466a"/>
	</g>
</g>
<g>
	<g>
		<rect y="465" width="512" height="47" fill="#31466a"/>
	</g>
</g>
<g>
	<g>
		<path d="M256.171,0L8.839,173.63h494.322L256.171,0z M256,161.63c-25.364,0-46-20.636-46-46s20.636-46,46-46s46,20.636,46,46    S281.364,161.63,256,161.63z" fill="#31466a"/>
	</g>
</g>
<g>
	<g>
		<path d="M256,99.63c-8.822,0-16,7.178-16,16c0,8.822,7.178,16,16,16s16-7.178,16-16S264.822,99.63,256,99.63z" fill="#31466a"/>
	</g>
</g>
<g>
</g>
<g>
</g>
<g>
</g>
<g>
</g>
<g>
</g>
<g>
</g>
<g>
</g>
<g>
</g>
<g>
</g>
<g>
</g>
<g>
</g>
<g>
</g>
<g>
</g>
<g>
</g>
<g>
</g>
</svg>
