<svg xmlns="http://www.w3.org/2000/svg" viewBox="0 0 508 508"><path d="M493.949 0h-479.8c-7.8 0-14.1 6.3-14.1 14.1v124.2c0 7.8 6.3 14.1 14.1 14.1h12.6v341.5c0 7.8 6.3 14.1 14.1 14.1h426.3c7.8 0 14.1-6.3 14.1-14.1V152.4h12.6c7.8 0 14.1-6.3 14.1-14.1V14.1c.1-7.8-6.2-14.1-14-14.1zm-204 479.8h-71.7v-99.2h71.7v99.2zm163.1 0h-134.9V366.5c0-7.8-6.3-14.1-14.1-14.1h-100c-7.8 0-14.1 6.3-14.1 14.1v113.3h-134.9V152.4h398v327.4zm26.8-355.6h-451.6v-96h451.6v96z"/><path d="M125.349 47h-25.7v59.2h13.2V89.6h12.5c11.8 0 21.3-9.6 21.3-21.3 0-11.8-9.6-21.3-21.3-21.3zm-2.1 31.1h-10.3V58.3h10.3c5.5 0 9.9 4.5 9.9 9.9s-4.5 9.9-9.9 9.9zm116.9 16.3V47h-13.2v59.1h38.4V94.4zm34.9-47.4h13.2v59.2h-13.2zm102.9 47.4V82.2h26.6V70.9h-26.6V58.7h29.5V47h-42.7v59.1h43.6V94.4zm-269.8 95.6c-7.8 0-14.1 6.3-14.1 14.1v21.7c0 7.8 6.3 14.1 14.1 14.1s14.1-6.3 14.1-14.1v-21.7c0-7.8-6.3-14.1-14.1-14.1zm72.9 0c-7.8 0-14.1 6.3-14.1 14.1v21.7c0 7.8 6.3 14.1 14.1 14.1s14.1-6.3 14.1-14.1v-21.7c0-7.8-6.3-14.1-14.1-14.1zm73 0c-7.8 0-14.1 6.3-14.1 14.1v21.7c0 7.8 6.3 14.1 14.1 14.1s14.1-6.3 14.1-14.1v-21.7c0-7.8-6.3-14.1-14.1-14.1zm73 0c-7.8 0-14.1 6.3-14.1 14.1v21.7c0 7.8 6.3 14.1 14.1 14.1s14.1-6.3 14.1-14.1v-21.7c0-7.8-6.3-14.1-14.1-14.1zm72.9 0c-7.8 0-14.1 6.3-14.1 14.1v21.7c0 7.8 6.3 14.1 14.1 14.1s14.1-6.3 14.1-14.1v-21.7c0-7.8-6.3-14.1-14.1-14.1zm-291.8 94.8c-7.8 0-14.1 6.3-14.1 14.1v21.7c0 7.8 6.3 14.1 14.1 14.1s14.1-6.3 14.1-14.1v-21.7c0-7.8-6.3-14.1-14.1-14.1zm72.9 0c-7.8 0-14.1 6.3-14.1 14.1v21.7c0 7.8 6.3 14.1 14.1 14.1s14.1-6.3 14.1-14.1v-21.7c0-7.8-6.3-14.1-14.1-14.1zm73 0c-7.8 0-14.1 6.3-14.1 14.1v21.7c0 7.8 6.3 14.1 14.1 14.1s14.1-6.3 14.1-14.1v-21.7c0-7.8-6.3-14.1-14.1-14.1zm73 0c-7.8 0-14.1 6.3-14.1 14.1v21.7c0 7.8 6.3 14.1 14.1 14.1s14.1-6.3 14.1-14.1v-21.7c0-7.8-6.3-14.1-14.1-14.1zm72.9 0c-7.8 0-14.1 6.3-14.1 14.1v21.7c0 7.8 6.3 14.1 14.1 14.1s14.1-6.3 14.1-14.1v-21.7c0-7.8-6.3-14.1-14.1-14.1zm-291.8 94.9c-7.8 0-14.1 6.3-14.1 14.1v21.7c0 7.8 6.3 14.1 14.1 14.1s14.1-6.3 14.1-14.1v-21.7c0-7.8-6.3-14.1-14.1-14.1zm291.8 0c-7.8 0-14.1 6.3-14.1 14.1v21.7c0 7.8 6.3 14.1 14.1 14.1s14.1-6.3 14.1-14.1v-21.7c0-7.8-6.3-14.1-14.1-14.1zm-215.3-334.2c-17.1 0-31 13.7-31 30.6 0 16.9 13.9 30.6 31 30.6s31.1-13.7 31.1-30.6c0-16.9-14-30.6-31.1-30.6zm0 49.7c-9.7 0-17.6-8.5-17.6-19 .1-10.6 7.9-19.1 17.6-19.1 9.7 0 17.6 8.5 17.6 19.1 0 10.5-7.9 19-17.6 19zm146.5-.7c-10.2 0-18.4-8.1-18.4-18.1s8.2-18.1 18.4-18.1c6.3 0 11.9 3.2 15.3 8l8-9.1c-5.7-6.9-14.3-11.5-24.1-11.5-17.1 0-31 13.7-31 30.6-.1 16.7 13.8 30.4 31 30.4 9.7 0 18.3-4.5 24-11.3l-8.3-8.5c-3.3 4.6-8.8 7.6-14.9 7.6z"/></svg>