<svg xmlns="http://www.w3.org/2000/svg" viewBox="0 0 60 60"><path d="M50 13V0H10v13h3v1h-1.322A1.68 1.68 0 0 0 10 15.677v2.646A1.68 1.68 0 0 0 11.678 20H13v34h-1.322A1.68 1.68 0 0 0 10 55.677v2.646A1.68 1.68 0 0 0 11.678 60h36.645A1.68 1.68 0 0 0 50 58.323v-2.646A1.68 1.68 0 0 0 48.322 54H47V20h1.322A1.68 1.68 0 0 0 50 18.323v-2.646A1.68 1.68 0 0 0 48.322 14H47v-1h3zm-38-2V2h3v2h2V2h2v2h2V2h2v2h2V2h2v2h2V2h2v2h2V2h2v2h2V2h2v2h2V2h2v2h2V2h3v9h-3V9h-2v2h-2V9h-2v2h-2V9h-2v2h-2V9h-2v2h-2V9h-2v2h-2V9h-2v2h-2V9h-2v2h-2V9h-2v2h-3zm34.699 45H48v2H12v-2h1.301c.936 0 1.699-.763 1.699-1.7V52h30v2.3c0 .937.763 1.7 1.699 1.7zm-31.667-6V24H45v26H15.032zM48 16v2h-1.301c-.936 0-1.699.763-1.699 1.7V22H15v-2.3c0-.937-.763-1.7-1.699-1.7H12v-2h36zm-3-2H15v-1h30v1z"/><path d="M34 27h-8v6h-6v8h6v6h8v-6h6v-8h-6v-6zm4 8v4h-6v6h-4v-6h-6v-4h6v-6h4v6h6zM17 18h6v2h-6zm9 0h12v2H26zm15 0h2v2h-2zM17 54h6v2h-6zm9 0h12v2H26zm15 0h2v2h-2z"/></svg>