<?xml version="1.0" encoding="iso-8859-1"?>
<!-- Generator: Adobe Illustrator 19.0.0, SVG Export Plug-In . SVG Version: 6.00 Build 0)  -->
<svg xmlns="http://www.w3.org/2000/svg" xmlns:xlink="http://www.w3.org/1999/xlink" version="1.1" id="Layer_1" x="0px" y="0px" viewBox="0 0 512.001 512.001" style="enable-background:new 0 0 512.001 512.001;" xml:space="preserve" width="512px" height="512px">
<g>
	<g>
		<path d="M415.842,90.232H368.84V36.855C368.838,16.501,352.339,0,331.983,0H180.02c-20.354,0-36.855,16.501-36.855,36.855v53.378    H96.159c-28.186,0-51.036,22.849-51.036,51.036v319.696c0,28.187,22.849,51.036,51.036,51.036h73.228    c7.369,0,13.343-5.973,13.343-13.343V385.215c0-18.677,15.2-33.89,33.89-33.89h78.776c18.64,0,33.89,15.251,33.89,33.89v113.444    c0,7.369,5.973,13.343,13.343,13.343h73.215c28.187,0,51.036-22.849,51.036-51.036V141.269    C466.878,113.081,444.029,90.232,415.842,90.232z M119.07,224.615h56.781c10.398,0,18.828,8.43,18.828,18.828    c0,10.398-8.43,18.828-18.828,18.828H119.07c-10.398,0-18.828-8.43-18.828-18.828C100.242,233.044,108.67,224.615,119.07,224.615z     M176.616,323.072h-56.781c-10.398,0-18.828-8.43-18.828-18.828c0-10.398,8.43-18.828,18.828-18.828h56.781    c10.398,0,18.828,8.43,18.828,18.828C195.444,314.642,187.014,323.072,176.616,323.072z M285.155,323.072h-56.782    c-10.398,0-18.828-8.43-18.828-18.828c0-10.398,8.43-18.828,18.828-18.828h56.782c10.398,0,18.828,8.43,18.828,18.828    C303.983,314.642,295.554,323.072,285.155,323.072z M208.779,243.442c0-10.398,8.43-18.828,18.828-18.828h56.782    c10.398,0,18.828,8.43,18.828,18.828c0,10.398-8.43,18.828-18.828,18.828h-56.782C217.209,262.27,208.779,253.84,208.779,243.442z     M308.663,126.647c0,10.398-8.43,18.828-18.828,18.828c-10.398,0-18.828-8.43-18.828-18.828v-8.248h-27.85v8.248    c0,10.398-8.43,18.828-18.828,18.828c-10.398,0-18.828-8.43-18.828-18.828v-54.15c0-10.398,8.43-18.828,18.828-18.828    c10.398,0,18.828,8.43,18.828,18.828v8.247h27.85v-8.247c0-10.398,8.43-18.828,18.828-18.828c10.398,0,18.828,8.43,18.828,18.828    V126.647z M337.174,224.615h56.781c10.398,0,18.828,8.43,18.828,18.828c0,10.398-8.43,18.828-18.828,18.828h-56.781    c-10.398,0-18.828-8.43-18.828-18.828C318.346,233.044,326.776,224.615,337.174,224.615z M394.72,323.072h-56.781    c-10.398,0-18.828-8.43-18.828-18.828c0-10.398,8.43-18.828,18.828-18.828h56.781c10.398,0,18.828,8.43,18.828,18.828    C413.548,314.642,405.119,323.072,394.72,323.072z" fill="rgb(49, 70, 106)"/>
	</g>
</g>
<g>
</g>
<g>
</g>
<g>
</g>
<g>
</g>
<g>
</g>
<g>
</g>
<g>
</g>
<g>
</g>
<g>
</g>
<g>
</g>
<g>
</g>
<g>
</g>
<g>
</g>
<g>
</g>
<g>
</g>
</svg>
