<?xml version="1.0" encoding="iso-8859-1"?>
<!-- Generator: Adobe Illustrator 18.1.1, SVG Export Plug-In . SVG Version: 6.00 Build 0)  -->
<svg xmlns="http://www.w3.org/2000/svg" xmlns:xlink="http://www.w3.org/1999/xlink" version="1.1" id="Capa_1" x="0px" y="0px" viewBox="0 0 362 362" style="enable-background:new 0 0 362 362;" xml:space="preserve" width="512px" height="512px">
<g>
	<g>
		<g>
			<g id="Layer_5_5_">
				<g>
					<path d="M327,0H35C15.701,0,0,15.701,0,35v292c0,19.299,15.701,35,35,35h292c19.299,0,35-15.701,35-35V35       C362,15.701,346.299,0,327,0z M292.5,274.66c0,15.188-12.312,27.5-27.5,27.5s-27.5-12.313-27.5-27.5v-62.326       c0,0,0.189-3.834-3.811-3.834c-26.375,0-78.172,0-105.5,0c-4,0-3.689,4.167-3.689,4.167v61.994c0,15.188-12.312,27.5-27.5,27.5       s-27.5-12.312-27.5-27.5V87.34c0-15.188,12.312-27.5,27.5-27.5s27.5,12.312,27.5,27.5v60.827c0,0-0.477,5.333,3.689,5.333       c27.328,0,79.125,0,105.5,0c4.667,0,3.811-4.833,3.811-4.833V87.34c0-15.188,12.312-27.5,27.5-27.5       c15.188,0,27.5,12.312,27.5,27.5V274.66z" fill="#31466a"/>
				</g>
			</g>
		</g>
	</g>
</g>
<g>
</g>
<g>
</g>
<g>
</g>
<g>
</g>
<g>
</g>
<g>
</g>
<g>
</g>
<g>
</g>
<g>
</g>
<g>
</g>
<g>
</g>
<g>
</g>
<g>
</g>
<g>
</g>
<g>
</g>
</svg>
